name C:\Users\u0150099\Documents\master_thesis\3dpredictsim\Results\debug\Fal_s1_mtjc2_sc_cspx10_oy2_TrackAnkleQSubtQ_ATx70_MTc2_MTPm_k1_d01_MTJm_nl_MG_exp5_table_d01_PF_Natali2010_x3_ls146_ig21_wAk4e+04_wa2e+03_wpM1e+03.mot
datacolumns 128
datarows 4
range 0.00000000 0.03333004
endheader
time	pelvis_tilt	pelvis_list	pelvis_rotation	pelvis_tx	pelvis_ty	pelvis_tz	hip_flexion_l	hip_adduction_l	hip_rotation_l	hip_flexion_r	hip_adduction_r	hip_rotation_r	knee_angle_l	knee_angle_r	ankle_angle_l	ankle_angle_r	subtalar_angle_l	subtalar_angle_r	mtj_angle_l	mtj_angle_r	mtp_angle_l	mtp_angle_r	lumbar_extension	lumbar_bending	lumbar_rotation	arm_flex_l	arm_add_l	arm_rot_l	arm_flex_r	arm_add_r	arm_rot_r	elbow_flex_l	elbow_flex_r	pro_sup_l	pro_sup_r	glut_med1_l/activation	glut_med2_l/activation	glut_med3_l/activation	glut_min1_l/activation	glut_min2_l/activation	glut_min3_l/activation	semimem_l/activation	semiten_l/activation	bifemlh_l/activation	bifemsh_l/activation	sar_l/activation	add_long_l/activation	add_brev_l/activation	add_mag1_l/activation	add_mag2_l/activation	add_mag3_l/activation	tfl_l/activation	pect_l/activation	grac_l/activation	glut_max1_l/activation	glut_max2_l/activation	glut_max3_l/activation	iliacus_l/activation	psoas_l/activation	quad_fem_l/activation	gem_l/activation	peri_l/activation	rect_fem_l/activation	vas_med_l/activation	vas_int_l/activation	vas_lat_l/activation	med_gas_l/activation	lat_gas_l/activation	soleus_l/activation	tib_post_l/activation	flex_dig_l/activation	flex_hal_l/activation	tib_ant_l/activation	per_brev_l/activation	per_long_l/activation	per_tert_l/activation	ext_dig_l/activation	ext_hal_l/activation	ercspn_l/activation	intobl_l/activation	extobl_l/activation	glut_med1_r/activation	glut_med2_r/activation	glut_med3_r/activation	glut_min1_r/activation	glut_min2_r/activation	glut_min3_r/activation	semimem_r/activation	semiten_r/activation	bifemlh_r/activation	bifemsh_r/activation	sar_r/activation	add_long_r/activation	add_brev_r/activation	add_mag1_r/activation	add_mag2_r/activation	add_mag3_r/activation	tfl_r/activation	pect_r/activation	grac_r/activation	glut_max1_r/activation	glut_max2_r/activation	glut_max3_r/activation	iliacus_r/activation	psoas_r/activation	quad_fem_r/activation	gem_r/activation	peri_r/activation	rect_fem_r/activation	vas_med_r/activation	vas_int_r/activation	vas_lat_r/activation	med_gas_r/activation	lat_gas_r/activation	soleus_r/activation	tib_post_r/activation	flex_dig_r/activation	flex_hal_r/activation	tib_ant_r/activation	per_brev_r/activation	per_long_r/activation	per_tert_r/activation	ext_dig_r/activation	ext_hal_r/activation	ercspn_r/activation	intobl_r/activation	extobl_r/activation	
          0.00000000	         -2.90914063	         -1.30098552	          4.73146539	          0.00000000	          0.90618026	         -0.00490742	        -18.54525218	          1.07096646	          8.25215553	         27.26389267	          2.29872179	         -2.57602924	         -8.42101291	         -5.27394572	          5.62747939	          1.57436864	          5.22207958	          0.05291639	         -1.40227193	          2.36959221	         16.78606440	         -6.13673355	         -3.15301892	          0.13105504	         -2.18037021	          3.95853038	        -13.91744320	         19.36492101	         -6.04173537	        -13.47397394	          6.10794397	         35.24806329	         24.60374108	         86.51662706	         86.51662706	          0.33436288	          0.09549304	          0.05925836	          0.47875767	          0.25283558	          0.11530943	          0.05000060	          0.05000007	          0.05000006	          0.08314914	          0.11691386	          0.05000002	          0.05000003	          0.05000006	          0.05000023	          0.05000017	          0.71254862	          0.05000014	          0.05000014	          0.05000238	          0.05000055	          0.05000033	          0.38052869	          0.76175668	          0.05000004	          0.05000020	          0.05000018	          0.36630668	          0.05000806	          0.05002495	          0.05000037	          0.44756545	          0.51566309	          0.32931953	          0.46232989	          0.40325144	          0.53093401	          0.05000000	          0.05412795	          0.29167843	          0.05000003	          0.05000001	          0.11057123	          0.05000000	          0.05000000	          0.05000001	          0.05993444	          0.05000020	          0.05925831	          0.05000006	          0.05000010	          0.05000037	          0.35619025	          0.07023101	          0.10292129	          0.05000022	          0.05000028	          0.12772066	          0.15509338	          0.15914611	          0.16137282	          0.12934071	          0.05000069	          0.05001773	          0.11872142	          0.06015548	          0.09591438	          0.10433066	          0.05000005	          0.05000007	          0.17297924	          0.05000028	          0.05000009	          0.05000008	          0.05925767	          0.05925781	          0.05888799	          0.08797325	          0.07918265	          0.05196120	          0.05000007	          0.07340464	          0.05000028	          0.22418418	          0.05925783	          0.06811798	          0.29226932	          0.59974041	          0.33042493	          0.05620150	          0.11027232	          0.10984282	
          0.01111001	         -2.91836034	         -1.44583171	          5.00141177	          0.01760698	          0.90562135	         -0.00467859	        -18.62394793	          0.70110219	          8.17742978	         26.75953389	          2.73803688	         -2.48475027	         -9.94675165	         -5.21452503	          4.59424553	          1.17585972	          5.51496075	         -0.14979570	         -2.68565956	          2.52451824	         20.13460661	         -6.39488238	         -2.97750428	          0.37318703	         -2.29926033	          3.53868119	        -13.86274665	         19.24424284	         -6.82223062	        -13.45273745	          5.83864016	         36.56916828	         24.11169535	         86.51662706	         86.51662706	          0.28212307	          0.08057351	          0.05000003	          0.40395808	          0.21333334	          0.09729385	          0.05000085	          0.05000011	          0.05000006	          0.07015818	          0.09864765	          0.06616043	          0.05000025	          0.05000020	          0.05000052	          0.05000048	          0.64303549	          0.05003512	          0.05000015	          0.05000032	          0.05000025	          0.05000026	          0.32107606	          0.71889611	          0.05000002	          0.05000009	          0.05000003	          0.35601424	          0.08216757	          0.08521675	          0.07563253	          0.37763919	          0.43509750	          0.27786765	          0.42498236	          0.44629979	          0.48107152	          0.05000000	          0.05925850	          0.27998257	          0.05000003	          0.05000001	          0.09329592	          0.05000000	          0.05000009	          0.08165133	          0.05925832	          0.05925832	          0.05000008	          0.05925836	          0.05925835	          0.05924510	          0.32048036	          0.05925838	          0.08684120	          0.05925833	          0.05000021	          0.13854319	          0.17589998	          0.13428187	          0.17875915	          0.14570453	          0.05000005	          0.05086287	          0.10017308	          0.05075707	          0.08106215	          0.15350869	          0.05000046	          0.05000016	          0.33915323	          0.18877007	          0.09059243	          0.05000002	          0.05000006	          0.05000006	          0.05000006	          0.08323544	          0.08136414	          0.05000002	          0.05390110	          0.08323531	          0.08112224	          0.22602131	          0.05000005	          0.11843030	          0.28664347	          0.62233161	          0.32105385	          0.05000001	          0.09304371	          0.09268132	
          0.02222002	         -2.92350287	         -1.60782286	          5.24522819	          0.03553375	          0.90518108	         -0.00441424	        -18.62290510	          0.31023556	          8.06724198	         26.27872229	          3.14546648	         -2.38590508	        -11.54409571	         -5.87108271	          3.27245630	          0.27563965	          5.78751338	         -0.39191326	         -4.09238908	          2.57997891	         23.78799772	         -6.46916828	         -2.78696080	          0.63570095	         -2.40957263	          3.02789372	        -13.81049398	         19.06868197	         -7.61195871	        -13.45333607	          5.79750683	         37.92190526	         23.60698481	         86.51662706	         86.51662706	          0.23804504	          0.06798496	          0.05925831	          0.34084493	          0.18000281	          0.08209297	          0.05000083	          0.05000021	          0.05000070	          0.05919689	          0.08323529	          0.16132547	          0.11208745	          0.05925855	          0.05925847	          0.05925853	          0.66613100	          0.05005418	          0.05000343	          0.05024457	          0.05925778	          0.05925827	          0.27091213	          0.66292426	          0.05925833	          0.05925832	          0.05000067	          0.30039173	          0.12047721	          0.12600764	          0.11115840	          0.31863800	          0.36711920	          0.23445445	          0.35858446	          0.37669372	          0.40591050	          0.05000000	          0.05000016	          0.26039420	          0.05000001	          0.05000000	          0.07871965	          0.05000011	          0.06683587	          0.07023102	          0.05000000	          0.05000002	          0.11719683	          0.05000003	          0.05000003	          0.05000003	          0.27040950	          0.05000005	          0.07327340	          0.05000001	          0.05000016	          0.11689784	          0.27144376	          0.28089879	          0.18731560	          0.17733796	          0.05000043	          0.07027133	          0.08452241	          0.09645511	          0.13901713	          0.16291679	          0.05000004	          0.05000013	          0.48081402	          0.15927724	          0.07643858	          0.06354352	          0.13816436	          0.13659691	          0.10462697	          0.07023101	          0.07023096	          0.06216248	          0.05000000	          0.07023092	          0.06844803	          0.31478570	          0.11046208	          0.09992713	          0.52761927	          0.66434746	          0.38917740	          0.05000000	          0.07850685	          0.07820108	
          0.03333004	         -2.92550556	         -1.81431283	          5.46630861	          0.05367926	          0.90490264	         -0.00415919	        -18.51570876	         -0.11650419	          7.91779083	         25.75290143	          3.48556760	         -2.21393717	        -13.22648126	         -6.82183120	          1.59311450	         -0.80423257	          5.98697654	         -0.62441583	         -5.58142150	          2.73477034	         27.73312865	         -6.42214251	         -2.58565689	          0.94973230	         -2.50812530	          2.44977261	        -13.75087132	         18.87101029	         -8.39016900	        -13.48126985	          5.95777590	         39.28603688	         23.06996995	         86.51662706	         86.51662706	          0.20085387	          0.05736321	          0.05000000	          0.33660788	          0.15187974	          0.06926703	          0.05000069	          0.05000006	          0.05000003	          0.05925831	          0.07023106	          0.14168994	          0.09457528	          0.05000022	          0.05000025	          0.05000022	          0.68615916	          0.07022277	          0.05000014	          0.05000023	          0.05000012	          0.05000009	          0.23649847	          0.67418805	          0.05000001	          0.05000006	          0.05000001	          0.25345945	          0.10165423	          0.10632061	          0.09379136	          0.26885497	          0.30976162	          0.19782400	          0.30256032	          0.31784028	          0.34249232	          0.05000001	          0.08439408	          0.23670657	          0.05000003	          0.05000002	          0.06642074	          0.08460663	          0.05639364	          0.05925835	          0.34110615	          0.35079321	          0.40289975	          0.33273857	          0.24636810	          0.22459051	          0.22816156	          0.15597353	          0.11521761	          0.10216990	          0.05925858	          0.09863410	          0.22903423	          0.23701205	          0.15805002	          0.19848620	          0.05000015	          0.05929256	          0.19385688	          0.25110549	          0.21135378	          0.13746325	          0.05925835	          0.05925830	          0.40569313	          0.13439232	          0.11658439	          0.05361568	          0.11657799	          0.11525543	          0.08828038	          0.05925833	          0.05925829	          0.05245040	          0.05925830	          0.05925826	          0.05775392	          0.36411582	          0.09320383	          0.08431492	          0.44518566	          0.80717021	          0.64908714	          0.05963133	          0.09312660	          0.06598318	
